<svg width="1200" height="600" viewBox="0 0 1200 600" fill="none" xmlns="http://www.w3.org/2000/svg">
<rect x="858" y="194" width="92" height="176" fill="#EF6300"/>
<path d="M276.144 277.16V315.688H281.82C285.26 322.74 290.42 330.136 304.352 330.136C317.424 330.136 329.98 319.816 329.98 296.252C329.98 273.032 317.424 262.712 304.352 262.712C290.42 262.712 285.26 270.108 281.82 277.16H276.144ZM261.696 251.876H276.144V266.496H281.82C284.572 258.584 294.032 249.812 306.416 249.812C329.12 249.812 345.46 265.98 345.46 296.252C345.46 326.868 329.12 343.036 306.416 343.036C294.032 343.036 284.572 334.264 281.82 326.352H276.144V374.684H261.696V251.876ZM372.949 287.824H424.721C423.001 275.956 415.777 262.712 398.749 262.712C383.957 262.712 375.185 272.344 372.949 287.824ZM439.685 295.22V300.724H372.605C373.637 318.612 382.753 329.964 398.749 329.964C409.241 329.964 420.593 324.288 423.001 312.592H437.965C434.697 331.684 417.325 342.864 398.749 342.864C373.809 342.864 357.813 324.804 357.813 296.252C357.813 267.872 373.809 249.812 398.749 249.812C422.829 249.812 439.685 267.184 439.685 295.22ZM505.9 251.876V264.776H471.156V340.8H456.536V251.876H471.156V261.508H476.66C481.992 252.564 484.228 251.876 505.9 251.876ZM579.4 308.292H594.364C591.612 329.104 574.412 342.864 554.288 342.864C529.348 342.864 513.352 324.804 513.352 296.424C513.352 265.12 532.1 249.812 554.288 249.812C573.896 249.812 590.58 258.068 593.504 280.6H578.368C576.132 269.42 568.048 262.712 554.288 262.712C538.292 262.712 527.8 275.956 527.8 296.424C527.8 316.72 537.088 329.964 554.288 329.964C569.768 329.964 578.024 319.128 579.4 308.292ZM621.039 287.824H672.811C671.091 275.956 663.867 262.712 646.839 262.712C632.047 262.712 623.275 272.344 621.039 287.824ZM687.775 295.22V300.724H620.695C621.727 318.612 630.843 329.964 646.839 329.964C657.331 329.964 668.683 324.288 671.091 312.592H686.055C682.787 331.684 665.415 342.864 646.839 342.864C621.899 342.864 605.903 324.804 605.903 296.252C605.903 267.872 621.899 249.812 646.839 249.812C670.919 249.812 687.775 267.184 687.775 295.22ZM778.07 283.008V340.8H763.622V281.288C763.622 273.548 762.762 262.884 746.594 262.884C728.534 262.884 726.298 273.72 724.75 277.16H719.074V340.8H704.626V252.048H719.074V266.324H724.75C729.394 254.456 737.994 249.812 749.346 249.812C765.17 249.812 778.07 257.724 778.07 283.008ZM839.92 264.776H817.732V319.988C817.732 324.288 817.732 327.9 827.536 327.9H839.748V340.8H820.14C806.896 340.8 803.112 330.652 803.112 322.74V264.776H790.728V251.876H803.112V225.216H817.732V261.508H823.408C825.128 257.208 827.192 251.876 833.212 251.876H839.92V264.776Z" fill="white"/>
</svg>
